<svg width="24" height="25" viewBox="0 0 24 25" xmlns="http://www.w3.org/2000/svg"><title>EF0D38C1-CA87-4ACF-95D7-A18DA4A8C176</title><g transform="translate(1 1.5)" fill-rule="evenodd"><path d="M11 1.985c2.936 0 3.284.011 4.444.064 1.072.049 1.654.228 2.042.379.477.176.91.457 1.264.822.365.355.646.787.823 1.265.15.387.33.97.378 2.041.053 1.16.064 1.508.064 4.444s-.01 3.284-.064 4.444c-.049 1.072-.228 1.654-.378 2.042a3.642 3.642 0 0 1-2.087 2.087c-.388.15-.97.33-2.042.378-1.16.053-1.507.064-4.444.064-2.937 0-3.284-.01-4.444-.064-1.072-.049-1.654-.228-2.042-.378a3.407 3.407 0 0 1-1.264-.823 3.407 3.407 0 0 1-.823-1.264c-.15-.388-.33-.97-.378-2.042-.053-1.16-.064-1.508-.064-4.444s.01-3.284.064-4.444c.049-1.072.228-1.654.378-2.041.177-.478.458-.91.823-1.265a3.407 3.407 0 0 1 1.265-.822c.387-.151.97-.33 2.041-.38 1.16-.052 1.508-.063 4.444-.063zm0-1.982c-2.986 0-3.36.013-4.534.067-1.17.053-1.97.239-2.669.51a5.39 5.39 0 0 0-1.948 1.27A5.39 5.39 0 0 0 .581 3.796c-.272.7-.458 1.499-.511 2.67C.016 7.638.003 8.013.003 11c0 2.986.013 3.361.067 4.534.053 1.17.24 1.97.511 2.67a5.39 5.39 0 0 0 1.268 1.947 5.39 5.39 0 0 0 1.948 1.268c.7.272 1.499.458 2.67.511 1.172.054 1.547.067 4.533.067 2.987 0 3.361-.013 4.534-.067 1.17-.053 1.97-.239 2.67-.51a5.623 5.623 0 0 0 3.215-3.217c.272-.7.458-1.499.512-2.67.053-1.172.066-1.547.066-4.533 0-2.986-.013-3.361-.066-4.534-.054-1.17-.24-1.97-.512-2.67a5.39 5.39 0 0 0-1.268-1.947A5.39 5.39 0 0 0 18.203.581c-.7-.272-1.499-.458-2.67-.511C14.362.016 13.988.003 11 .003z"/><path d="M11 5.353a5.647 5.647 0 1 0 0 11.294 5.647 5.647 0 0 0 0-11.294zm0 9.312a3.665 3.665 0 1 1 0-7.33 3.665 3.665 0 0 1 0 7.33z"/><circle cx="16.87" cy="5.13" r="1.32"/></g></svg>