<svg xmlns="http://www.w3.org/2000/svg" width="24" height="25" viewBox="0 0 24 25"><path fill-rule="evenodd" d="M23.519 5.338a9.438 9.438 0 0 1-2.716.745 4.741 4.741 0 0 0 2.079-2.615 9.444 9.444 0 0 1-3.003 1.147 4.72 4.72 0 0 0-3.45-1.492 4.727 4.727 0 0 0-4.727 4.727c0 .37.042.73.122 1.077a13.422 13.422 0 0 1-9.743-4.939 4.704 4.704 0 0 0-.64 2.377c0 1.64.834 3.087 2.102 3.934a4.706 4.706 0 0 1-2.141-.59v.06c0 2.29 1.63 4.2 3.792 4.634a4.798 4.798 0 0 1-2.135.082 4.733 4.733 0 0 0 4.415 3.283 9.484 9.484 0 0 1-6.999 1.957 13.378 13.378 0 0 0 7.246 2.125c8.695 0 13.45-7.203 13.45-13.45 0-.205-.004-.409-.014-.611a9.632 9.632 0 0 0 2.362-2.45z"/></svg>