<svg xmlns="http://www.w3.org/2000/svg" width="32" height="32" viewBox="0 0 32 32"><path fill="#FFF" fill-rule="evenodd" d="M15.508 6c-3.846 0-6.976 3.141-7.18 7.092-2.684.512-4.55 3.07-4.307 5.9.244 2.831 2.519 5.002 5.247 5.008 0 0-1.795-2.528-2.019-2.704A3.548 3.548 0 0 1 5.908 18.5c0-2.797 2.38-3.833 4.256-3.72-.16-4.218 2.12-6.78 5.344-6.78 3.315 0 5.655 2.797 5.344 6.78 1.676-.046 4.256.751 4.256 3.72 0 1.228-.254 2.172-1.176 2.796-.226.154-2.184 2.704-2.184 2.704 1.969.376 3.973-.441 5.174-2.109a5.69 5.69 0 0 0 .497-5.764c-.897-1.864-2.73-3.04-4.731-3.035C22.484 9.141 19.354 6 15.508 6zM9.136 19.077h4.78v-4.79H17.1v4.79h4.779l-6.372 6.636-6.372-6.636z"/></svg>