<svg width="24" height="25" viewBox="0 0 24 25" xmlns="http://www.w3.org/2000/svg"><title>03BA9360-94BE-4021-98B8-8D7A69A6BEDF</title><path d="M23.518 5.339a9.438 9.438 0 0 1-2.715.744 4.741 4.741 0 0 0 2.079-2.615 9.444 9.444 0 0 1-3.003 1.147 4.72 4.72 0 0 0-3.45-1.492 4.727 4.727 0 0 0-4.727 4.727c0 .37.042.731.122 1.078a13.422 13.422 0 0 1-9.743-4.94 4.704 4.704 0 0 0-.64 2.378c0 1.64.834 3.086 2.102 3.934a4.706 4.706 0 0 1-2.141-.591v.06c0 2.29 1.629 4.2 3.792 4.634a4.798 4.798 0 0 1-2.135.082 4.733 4.733 0 0 0 4.415 3.284 9.484 9.484 0 0 1-7 1.956 13.378 13.378 0 0 0 7.247 2.125c8.695 0 13.45-7.203 13.45-13.45 0-.205-.005-.408-.014-.611a9.632 9.632 0 0 0 2.361-2.45z" fill-rule="evenodd"/></svg>