<svg xmlns="http://www.w3.org/2000/svg" width="104" height="110" viewBox="0 0 104 110" xmlns:xlink="http://www.w3.org/1999/xlink"><defs><path id="a" d="M32.484 61.95a17.377 17.377 0 0 1-11.257 4.129c-9.626 0-17.457-7.831-17.457-17.459 0-3.747 1.602-6.727 3.457-10.177 2.515-4.676 5.365-9.976 5.365-18.684 0-4.76 3.874-8.633 8.635-8.633 4.761 0 8.635 3.873 8.635 8.633 0 4.102.637 7.443 1.569 10.324a11.6 11.6 0 0 1 4.532 1.845c-1.432-3.267-2.519-7.038-2.519-12.17 0-5.776-4.033-10.625-9.431-11.889.649-2.119 1.832-4.207 3.94-5.638a1.193 1.193 0 1 0-1.34-1.976c-2.798 1.898-4.271 4.625-5.022 7.3-.12-.004-.242-.01-.364-.01-6.736 0-12.216 5.48-12.216 12.214 0 7.806-2.51 12.474-4.938 16.988C2.075 40.462.187 43.971.187 48.62c0 11.601 9.439 21.04 21.04 21.04 5.514 0 10.537-2.135 14.292-5.618a3.286 3.286 0 0 1-.651-.343 70.18 70.18 0 0 1-2.384-1.748z"/><path id="c" d="M36.525 40.821c-2.665-4.956-5.422-10.081-5.422-18.664 0-6.432-4.63-11.802-10.734-12.959.534-2.547 1.732-5.24 4.285-6.972A1.194 1.194 0 1 0 23.314.25c-3.296 2.237-4.753 5.62-5.354 8.716l-.054-.002c-7.276 0-13.196 5.919-13.196 13.193 0 7.629-2.179 12.525-4.535 17 .132.099.269.192.397.297A11.612 11.612 0 0 1 5.13 37.18c1.755-3.947 3.162-8.644 3.162-15.023 0-5.3 4.314-9.611 9.615-9.611 5.302 0 9.614 4.311 9.614 9.61 0 9.485 3.11 15.263 5.85 20.362 2.042 3.795 3.803 7.072 3.803 11.215 0 10.623-8.643 19.266-19.267 19.266a19.177 19.177 0 0 1-12.455-4.584 70.078 70.078 0 0 1-2.943 2.182 22.76 22.76 0 0 0 15.398 5.984c12.6 0 22.85-10.25 22.85-22.848 0-5.045-2.056-8.866-4.23-12.912z"/><path id="e" d="M9.835 2.99a6.85 6.85 0 0 0-6.841 6.842c0 5.798 8.557 13.538 14.201 17.644C22.84 23.37 31.396 15.63 31.396 9.832a6.849 6.849 0 0 0-6.841-6.842 6.831 6.831 0 0 0-6.057 3.657 1.471 1.471 0 0 1-2.605 0A6.832 6.832 0 0 0 9.835 2.99zm7.36 27.767c-.295 0-.59-.09-.844-.266C13.629 28.587.049 18.641.049 9.832c0-5.397 4.39-9.786 9.786-9.786a9.765 9.765 0 0 1 7.36 3.332 9.765 9.765 0 0 1 7.36-3.332c5.396 0 9.787 4.39 9.787 9.786 0 8.808-13.58 18.755-16.303 20.659a1.472 1.472 0 0 1-.844.266z"/></defs><g fill="none" fill-rule="evenodd"><g transform="translate(15.782 6.927)"><mask id="b" fill="#fff"><use xlink:href="#a"/></mask><path fill="#93C13D" mask="url(#b)" d="M.181 69.669h35.805V.042H.181z"/></g><g transform="translate(51.974)"><mask id="d" fill="#fff"><use xlink:href="#c"/></mask><path fill="#93C13D" mask="url(#d)" d="M.173 76.597h40.602V.042H.173z"/></g><g transform="translate(35.35 38.626)"><mask id="f" fill="#fff"><use xlink:href="#e"/></mask><path fill="#D98799" mask="url(#f)" d="M.029 30.766h34.316V.034H.029z"/></g><path fill="#FFF" d="M3.53 109.4H.24V84.41h3.22V87h.105c.537-.887 1.324-1.616 2.363-2.188 1.038-.571 2.245-.857 3.622-.857 1.237 0 2.362.222 3.377.665a7.78 7.78 0 0 1 2.626 1.855c.735.793 1.3 1.72 1.697 2.782a9.67 9.67 0 0 1 .595 3.413 9.815 9.815 0 0 1-.595 3.43 8.456 8.456 0 0 1-1.68 2.8 7.758 7.758 0 0 1-2.625 1.872c-1.027.456-2.182.683-3.465.683a7.55 7.55 0 0 1-3.36-.77c-1.05-.513-1.878-1.237-2.485-2.17H3.53V109.4zm10.92-16.73a7.26 7.26 0 0 0-.35-2.24 5.715 5.715 0 0 0-1.05-1.925 5.028 5.028 0 0 0-1.732-1.33c-.689-.327-1.488-.49-2.398-.49-.84 0-1.604.163-2.292.49a5.392 5.392 0 0 0-1.768 1.33c-.49.56-.87 1.202-1.138 1.925a6.488 6.488 0 0 0-.402 2.275c0 .793.134 1.552.403 2.275.268.723.647 1.36 1.137 1.907A5.51 5.51 0 0 0 6.628 98.2c.688.327 1.452.49 2.292.49.91 0 1.71-.17 2.398-.507a5.22 5.22 0 0 0 1.732-1.348 5.715 5.715 0 0 0 1.05-1.925 7.26 7.26 0 0 0 .35-2.24zm30.375-1.083c-.368-1.355-1.004-2.405-1.909-3.147s-1.99-1.114-3.252-1.114c-1.292 0-2.414.381-3.363 1.144-.95.762-1.603 1.801-1.961 3.117h10.485zm-10.575 2.66c.248 1.376.868 2.49 1.857 3.342.99.852 2.165 1.278 3.528 1.278a5.18 5.18 0 0 0 2.662-.702c.8-.47 1.44-1.132 1.917-1.989h3.326c-.756 1.824-1.812 3.22-3.17 4.186-1.357.967-2.936 1.45-4.735 1.45-1.214 0-2.323-.215-3.327-.643-1.004-.428-1.914-1.071-2.729-1.928a8.88 8.88 0 0 1-1.798-2.818 8.695 8.695 0 0 1-.648-3.281c0-1.157.196-2.238.589-3.245a8.656 8.656 0 0 1 1.738-2.75c.815-.897 1.735-1.572 2.759-2.026 1.024-.453 2.143-.68 3.356-.68 1.442 0 2.781.336 4.02 1.009a8.561 8.561 0 0 1 3.065 2.818c.477.748.83 1.568 1.059 2.459.229.892.343 1.911.343 3.057v.464H34.25zm32.04-1.195c0 1.664.55 3.06 1.649 4.186 1.098 1.126 2.443 1.689 4.034 1.689 1.452 0 2.732-.566 3.84-1.697 1.109-1.13 1.664-2.454 1.664-3.969 0-1.614-.55-2.997-1.648-4.148-1.1-1.152-2.404-1.727-3.916-1.727-1.551 0-2.876.548-3.974 1.645-1.1 1.096-1.648 2.436-1.648 4.021zm11.037 8.326V99.36a7.796 7.796 0 0 1-2.528 1.787 7.391 7.391 0 0 1-2.975.605c-2.466 0-4.514-.824-6.145-2.474-1.63-1.65-2.447-3.715-2.447-6.196 0-1.156.204-2.253.612-3.29a8.306 8.306 0 0 1 1.745-2.735c.825-.867 1.727-1.507 2.707-1.921.98-.413 2.096-.62 3.349-.62 1.124 0 2.158.199 3.102.598.945.398 1.805 1.001 2.58 1.809v-1.989h2.984v16.444h-2.984zm22.838 0h-2.954V84.934h2.776v1.899c.486-.727 1.045-1.268 1.677-1.622.631-.354 1.365-.536 2.2-.546v3.095c-1.322.1-2.27.49-2.842 1.173-.571.683-.857 1.782-.857 3.297v9.148z"/></g></svg>