<svg xmlns="http://www.w3.org/2000/svg" width="32" height="32" viewBox="0 0 32 32">
  <path fill="#FFFFFF" fill-rule="evenodd" d="M11.508017,0 C7.66225702,0 4.53169702,3.141 4.32817702,7.092 C1.6444871,7.60404354 -0.222499137,10.1619352 0.0213905717,12.9925755 C0.265280281,15.8232158 2.53968591,17.9939277 5.26801702,18 C5.26801702,18 3.47281702,15.472 3.24913702,15.296 C2.404878,14.6355379 1.90809223,13.5998267 1.90801702,12.5 C1.90801702,9.703 4.28785702,8.667 6.16369702,8.78 C6.00337702,4.562 8.28337702,2 11.508017,2 C14.822897,2 17.163377,4.797 16.852337,8.78 C18.527537,8.734 21.108017,9.531 21.108017,12.5 C21.108017,13.728 20.853617,14.672 19.932017,15.296 C19.706417,15.45 17.748017,18 17.748017,18 C19.7169945,18.3756776 21.7205759,17.5589957 22.921869,15.8910808 C24.1231621,14.223166 24.315489,11.9909767 23.4185149,10.1268943 C22.5215408,8.26281189 20.689587,7.08754483 18.687857,7.092 C18.484337,3.141 15.353777,0 11.508017,0 Z M5.13649702,13.077 L9.91537702,13.077 L9.91537702,8.287 L13.100657,8.287 L13.100657,13.077 L17.879537,13.077 L11.508017,19.713 L5.13649702,13.077 L5.13649702,13.077 Z" transform="translate(4 6)"/>
</svg>
