<svg xmlns="http://www.w3.org/2000/svg" width="24" height="25" viewBox="0 0 24 25">
  <g fill="#000000" fill-rule="evenodd" transform="translate(1 1.5)">
    <path d="M11,1.98484524 C13.9362143,1.98484524 14.2839802,1.99606349 15.4436508,2.04896825 C16.5158016,2.09790079 17.0980159,2.277 17.4855476,2.42759524 C17.9631786,2.60387984 18.3952294,2.88496792 18.7499365,3.25019444 C19.115163,3.60490159 19.3962511,4.03695239 19.5725357,4.51458333 C19.723131,4.90207143 19.9022738,5.48432937 19.9511627,6.55648016 C20.0040675,7.71606349 20.0152857,8.06382937 20.0152857,11.000131 C20.0152857,13.9364325 20.0040675,14.2841111 19.9511627,15.4437817 C19.9022302,16.5159325 19.7230873,17.0981468 19.5725357,17.4856786 C19.20259,18.4447048 18.4445739,19.202721 17.4855476,19.5726667 C17.0980595,19.7232619 16.5158016,19.9024048 15.4436508,19.9512937 C14.2842857,20.0041984 13.9365198,20.0154167 11,20.0154167 C8.06348016,20.0154167 7.71584524,20.0041984 6.55634921,19.9512937 C5.48419841,19.9023611 4.90198413,19.7232183 4.51445238,19.5726667 C4.03682077,19.3963834 3.60476969,19.1152951 3.25006349,18.7500675 C2.88483812,18.3953594 2.60375022,17.9633088 2.42746429,17.4856786 C2.27686905,17.0981905 2.09772619,16.5159325 2.0488373,15.4437817 C1.99593254,14.2842421 1.98471429,13.9364325 1.98471429,11.000131 C1.98471429,8.06382937 1.99593254,7.71615079 2.0488373,6.55648016 C2.09776984,5.48432937 2.27686905,4.90211508 2.42746429,4.51458333 C2.60376856,4.03692859 2.88488726,3.60486166 3.25015079,3.25015079 C3.60485889,2.88492542 4.03690941,2.60383752 4.51453968,2.42755159 C4.90202778,2.27695635 5.48428571,2.09781349 6.55643651,2.0489246 C7.71601984,1.99601984 8.06378571,1.98480159 11.0000873,1.98480159 L11,1.98484524 Z M11.0000873,0.0034484127 C8.0135873,0.0034484127 7.63897619,0.0161071429 6.46625397,0.0696230159 C5.29575794,0.123051587 4.4964246,0.308916667 3.79696429,0.58077381 C3.06322058,0.856892632 2.39853783,1.28974083 1.84926587,1.84913492 C1.28974572,2.39837244 0.856776657,3.06305778 0.580555556,3.79683333 C0.308916667,4.4963373 0.123051587,5.29567063 0.0698412698,6.46616667 C0.0161071429,7.63888889 0.0034484127,8.0135 0.0034484127,11 C0.0034484127,13.9865 0.0161071429,14.3611111 0.0698412698,15.5338333 C0.123269841,16.7043294 0.309134921,17.5036627 0.580992063,18.203123 C0.857112144,18.9368661 1.28996017,19.6015486 1.84935317,20.1508214 C2.39862335,20.7102177 3.06330661,21.1430662 3.79705159,21.4191825 C4.49655556,21.6910397 5.29588889,21.8769048 6.46634127,21.9303333 C7.6392381,21.9838492 8.01371825,21.9965079 11.0001746,21.9965079 C13.986631,21.9965079 14.3612857,21.9838492 15.5340079,21.9303333 C16.704504,21.8769048 17.5038373,21.6910397 18.2032976,21.4191825 C19.6803856,20.8479014 20.848076,19.680211 21.4193571,18.203123 C21.6912143,17.503619 21.8770794,16.7042857 21.9305079,15.5338333 C21.9840238,14.3609365 21.9966825,13.9864563 21.9966825,11 C21.9966825,8.01354365 21.9840238,7.63888889 21.9305079,6.46616667 C21.8770794,5.29567063 21.6912143,4.4963373 21.4193571,3.79687698 C21.1432408,3.063132 20.7103923,2.39844874 20.150996,1.84917857 C19.6017129,1.28967296 18.9369817,0.856732971 18.2031667,0.580555556 C17.5036627,0.308916667 16.7043294,0.123051587 15.5338333,0.0698412698 C14.3611111,0.0161071429 13.9865,0.0034484127 11,0.0034484127 L11,0.0034484127 L11.0000873,0.0034484127 Z"/>
    <path d="M11,5.35311508 C7.88131157,5.35311508 5.35311508,7.88131157 5.35311508,11 C5.35311508,14.1186884 7.88131157,16.6468849 11,16.6468849 C14.1186884,16.6468849 16.6468849,14.1186884 16.6468849,11 C16.6468849,7.88131157 14.1186884,5.35311508 11,5.35311508 L11,5.35311508 Z M11,14.6654881 C8.97561251,14.665464 7.33453948,13.0243584 7.33455556,10.9999709 C7.33457163,8.97558341 8.97567071,7.33450387 11.0000582,7.33451191 C13.0244457,7.33451994 14.6655317,8.97561251 14.6655317,11 C14.6655076,13.0244002 13.0244002,14.6654881 11,14.6654881 Z"/>
    <circle cx="16.87" cy="5.13" r="1.32"/>
  </g>
</svg>
