<?xml version="1.0" encoding="UTF-8" standalone="no"?>
<svg width="104px" height="110px" viewBox="0 0 104 110" version="1.1" xmlns="http://www.w3.org/2000/svg" xmlns:xlink="http://www.w3.org/1999/xlink">
    <!-- Generator: sketchtool 41 (35326) - http://www.bohemiancoding.com/sketch -->
    <title>0577419E-D2A6-4BFD-8639-C359A9190728</title>
    <desc>Created with sketchtool.</desc>
    <defs>
        <path d="M32.483507,61.9505725 C29.4414529,64.523187 25.5139479,66.0785115 21.2274649,66.0785115 C11.600501,66.0785115 3.76968938,58.247729 3.76968938,48.6202099 C3.76968938,44.8734924 5.37204409,41.8932061 7.22711423,38.4431107 C9.74227455,33.7668511 12.5924248,28.4671183 12.5924248,19.758855 C12.5924248,14.9994656 16.466483,11.126374 21.2274649,11.126374 C25.9880261,11.126374 29.8622946,14.9994656 29.8622946,19.758855 C29.8622946,23.8613931 30.4988176,27.2016985 31.4307715,30.0833206 C33.0596393,30.3700763 34.6045491,31.0002672 35.9634469,31.9277099 C34.5306914,28.6608779 33.4442886,24.8895992 33.4442886,19.758855 C33.4442886,13.9823855 29.4107315,9.13293893 24.0125952,7.8694084 C24.6617435,5.75022901 25.8447295,3.66211832 27.9535671,2.23085878 C28.4991884,1.86013359 28.6412224,1.11805344 28.2704609,0.572461832 C27.9007515,0.0272900763 27.1581764,-0.114408397 26.6125551,0.255267176 C23.8152204,2.15339695 22.3416433,4.88009542 21.591493,7.55431298 C21.4700802,7.55074427 21.3492986,7.54486641 21.2274649,7.54486641 C14.4912625,7.54486641 9.01127255,13.0247137 9.01127255,19.758855 C9.01127255,27.5646565 6.50053106,32.2329389 4.07269539,36.7473473 C2.07495992,40.4621565 0.187274549,43.9712405 0.187274549,48.6202099 C0.187274549,60.2214313 9.62591182,69.6600191 21.2274649,69.6600191 C26.7409118,69.6600191 31.7638677,67.5250954 35.5190381,64.0424618 C35.2924148,63.9503053 35.0723146,63.8415649 34.867996,63.6988168 C34.257986,63.2718321 33.4356613,62.6792176 32.483507,61.9505725 Z" id="path-1"></path>
        <path d="M36.5252705,40.821126 C33.8596593,35.8646183 31.1031463,30.739542 31.1031463,22.1566031 C31.1031463,15.724542 26.4724148,10.3553244 20.3693687,9.19843511 C20.902996,6.65122137 22.1013427,3.95769084 24.6541683,2.22561069 C25.1993687,1.8548855 25.3426653,1.11280534 24.971483,0.56721374 C24.6009319,0.0220419847 23.8587776,-0.120706107 23.3131563,0.24980916 C20.0181764,2.4865458 18.5614329,5.87051527 17.9598397,8.96562977 C17.9419539,8.96562977 17.9240681,8.96437023 17.9061824,8.96437023 C10.6296192,8.96437023 4.71006012,14.8825382 4.71006012,22.1566031 C4.71006012,29.7856489 2.5311523,34.6816985 0.174649299,39.1566412 C0.307214429,39.2559351 0.443777555,39.3491412 0.572134269,39.4538931 C1.90472946,38.3643893 3.4639479,37.5929198 5.12942886,37.1797901 C6.88370741,33.2334351 8.29121242,28.5355534 8.29121242,22.1566031 C8.29121242,16.8572901 12.6048397,12.5458779 17.9061824,12.5458779 C23.2083667,12.5458779 27.5203106,16.8572901 27.5203106,22.1566031 C27.5203106,31.641374 30.6290681,37.4186832 33.37001,42.5179389 C35.4123547,46.3125191 37.1733667,49.5902672 37.1733667,53.7329008 C37.1733667,64.3558779 28.5301202,72.9994847 17.9061824,72.9994847 C13.1603507,72.9994847 8.81263527,71.2713931 5.4509519,68.4153817 C4.26375752,69.3432443 3.24006012,70.0853244 2.50821643,70.5973282 C6.57312625,74.3117176 11.9790481,76.5809924 17.9061824,76.5809924 C30.5051303,76.5809924 40.7557816,66.3306298 40.7557816,53.7329008 C40.7557816,48.6878053 38.7001804,44.8669847 36.5252705,40.821126 Z" id="path-3"></path>
        <path d="M9.83528056,2.98994275 C6.06222445,2.98994275 2.99365731,6.05902672 2.99365731,9.83198473 C2.99365731,15.6300763 11.5506313,23.3703817 17.1951703,27.4764885 C22.8401303,23.3699618 31.3964729,15.6294466 31.3964729,9.83198473 C31.3964729,6.05902672 28.3281162,2.98994275 24.5546393,2.98994275 C22.007495,2.98994275 19.6869739,4.39118321 18.4976754,6.6470229 C18.2426453,7.13089695 17.7416333,7.43255725 17.1951703,7.43255725 C16.6489178,7.43255725 16.1476954,7.13089695 15.8928758,6.6470229 C14.7035772,4.39118321 12.3826353,2.98994275 9.83528056,2.98994275 Z M17.1951703,30.7567557 C16.8997395,30.7567557 16.6047295,30.6677481 16.3509619,30.4909924 C13.6289579,28.5865649 0.0488176353,18.6412214 0.0488176353,9.83198473 C0.0488176353,4.4354771 4.43903808,0.0457633588 9.83528056,0.0457633588 C12.6982665,0.0457633588 15.3607214,1.28326336 17.1951703,3.37788168 C19.0294088,1.28326336 21.692495,0.0457633588 24.5546393,0.0457633588 C29.9510922,0.0457633588 34.3419439,4.4354771 34.3419439,9.83198473 C34.3419439,18.6399618 20.7613828,28.5865649 18.0389579,30.4909924 C17.7860321,30.6677481 17.4906012,30.7567557 17.1951703,30.7567557 Z" id="path-5"></path>
    </defs>
    <g id="Grids" stroke="none" stroke-width="1" fill="none" fill-rule="evenodd">
        <g id="Pear-New-Home-v4" transform="translate(-588.000000, -162.000000)">
            <g id="Hero">
                <g id="Logo" transform="translate(588.000000, 162.000000)">
                    <g id="Pear-Logo">
                        <g id="Group-3" transform="translate(15.781563, 6.927481)">
                            <mask id="mask-2" fill="white">
                                <use xlink:href="#path-1"></use>
                            </mask>
                            <g id="Clip-2"></g>
                            <polygon id="Fill-1" fill="#93C13D" mask="url(#mask-2)" points="0.180961924 69.6694656 35.9861723 69.6694656 35.9861723 0.0419847328 0.180961924 0.0419847328"></polygon>
                        </g>
                        <g id="Group-6" transform="translate(51.973948, 0.000000)">
                            <mask id="mask-4" fill="white">
                                <use xlink:href="#path-3"></use>
                            </mask>
                            <g id="Clip-5"></g>
                            <polygon id="Fill-4" fill="#93C13D" mask="url(#mask-4)" points="0.17254509 76.5969466 40.7753507 76.5969466 40.7753507 0.0419847328 0.17254509 0.0419847328"></polygon>
                        </g>
                        <g id="Group-9" transform="translate(35.350701, 38.625954)">
                            <mask id="mask-6" fill="white">
                                <use xlink:href="#path-5"></use>
                            </mask>
                            <g id="Clip-8"></g>
                            <polygon id="Fill-7" fill="#D98799" mask="url(#mask-6)" points="0.0294589178 30.7664122 34.3448898 30.7664122 34.3448898 0.0335877863 0.0294589178 0.0335877863"></polygon>
                        </g>
                        <path d="M3.53,109.4 L0.24,109.4 L0.24,84.41 L3.46,84.41 L3.46,87 L3.565,87 C4.10166935,86.1133289 4.88916147,85.3841695 5.9275,84.8125 C6.96583852,84.2408305 8.17332645,83.955 9.55,83.955 C10.7866728,83.955 11.9124949,84.1766644 12.9275,84.62 C13.9425051,85.0633355 14.8174963,85.6816627 15.5525,86.475 C16.2875037,87.2683373 16.8533313,88.195828 17.25,89.2575 C17.6466686,90.319172 17.845,91.4566606 17.845,92.67 C17.845,93.8833394 17.6466686,95.0266613 17.25,96.1 C16.8533313,97.1733387 16.2933369,98.1066627 15.57,98.9 C14.846663,99.6933373 13.9716718,100.317498 12.945,100.7725 C11.9183282,101.227502 10.7633397,101.455 9.48,101.455 C8.28999405,101.455 7.17000525,101.198336 6.12,100.685 C5.06999475,100.171664 4.2416697,99.448338 3.635,98.515 L3.53,98.515 L3.53,109.4 Z M14.45,92.67 C14.45,91.8999961 14.3333345,91.1533369 14.1,90.43 C13.8666655,89.706663 13.516669,89.0650028 13.05,88.505 C12.583331,87.9449972 12.0058368,87.5016683 11.3175,87.175 C10.6291632,86.8483317 9.83000455,86.685 8.92,86.685 C8.0799958,86.685 7.31583677,86.8483317 6.6275,87.175 C5.93916322,87.5016683 5.35000245,87.9449972 4.86,88.505 C4.36999755,89.0650028 3.99083467,89.706663 3.7225,90.43 C3.45416532,91.1533369 3.32,91.9116627 3.32,92.705 C3.32,93.4983373 3.45416532,94.256663 3.7225,94.98 C3.99083467,95.7033369 4.36999755,96.3391639 4.86,96.8875 C5.35000245,97.4358361 5.93916322,97.8733317 6.6275,98.2 C7.31583677,98.5266683 8.0799958,98.69 8.92,98.69 C9.83000455,98.69 10.6291632,98.520835 11.3175,98.1825 C12.0058368,97.844165 12.583331,97.3950028 13.05,96.835 C13.516669,96.2749972 13.8666655,95.6333369 14.1,94.91 C14.3333345,94.186663 14.45,93.4400038 14.45,92.67 L14.45,92.67 Z" id="p" fill="#FFFFFF"></path>
                        <path d="M44.8250442,91.5868643 C44.4573451,90.2315948 43.8206195,89.1823252 42.9161947,88.4399426 C42.0113274,87.69756 40.9268142,87.3259252 39.6644248,87.3259252 C38.3715044,87.3259252 37.2502655,87.7073165 36.300708,88.4700991 C35.3511504,89.2319948 34.6976106,90.2710643 34.339646,91.5868643 L44.8250442,91.5868643 Z M34.2502655,94.2477339 C34.4984956,95.6234035 35.1175221,96.7365339 36.1069027,97.5888991 C37.0962832,98.4408209 38.2719469,98.8670035 39.6347788,98.8670035 C40.609115,98.8670035 41.4962832,98.6332904 42.2967257,98.1645339 C43.0971681,97.6957774 43.7361062,97.0332209 44.2135398,96.1764209 L47.539646,96.1764209 C46.7838938,98.0000035 45.7276991,99.3951861 44.370177,100.361969 C43.0126549,101.328751 41.4343363,101.812143 39.6347788,101.812143 C38.4210619,101.812143 37.3122124,101.597499 36.3082301,101.169099 C35.3038053,100.741143 34.3940708,100.097656 33.5790265,99.2408557 C32.8126549,98.4332817 32.2139823,97.4939948 31.7812389,96.4225513 C31.3489381,95.3515513 31.1330088,94.2574904 31.1330088,93.1416991 C31.1330088,91.9851078 31.3290265,90.9043513 31.7219469,89.8972122 C32.1144248,88.89096 32.6936283,87.9742904 33.4595575,87.14676 C34.2746018,86.250047 35.1945133,85.5746296 36.2188496,85.1213948 C37.2427434,84.6677165 38.3617699,84.4410991 39.5750442,84.4410991 C41.0166372,84.4410991 42.3564602,84.7772557 43.5945133,85.4500122 C44.8325664,86.1227687 45.8542478,87.0624991 46.6595575,88.2683165 C47.1369912,89.0155774 47.489646,89.8355687 47.7188496,90.72696 C47.9476106,91.6192383 48.0617699,92.6383513 48.0617699,93.7842991 L48.0617699,94.2477339 L34.2502655,94.2477339 Z" id="Fill-11" fill="#FFFFFF"></path>
                        <path d="M66.2906195,93.0519835 C66.2906195,94.7163574 66.839292,96.1110965 67.9388496,97.2375313 C69.0370796,98.3635226 70.3817699,98.92674 71.9729204,98.92674 C73.4246903,98.92674 74.7047788,98.3613052 75.8131858,97.2299922 C76.9220354,96.0991226 77.4769027,94.776227 77.4769027,93.2613052 C77.4769027,91.6466009 76.9273451,90.2638357 75.829115,89.1125661 C74.7295575,87.9612965 73.4246903,87.3861052 71.9131858,87.3861052 C70.3618584,87.3861052 69.0370796,87.9342443 67.9388496,89.0305226 C66.839292,90.1268009 66.2906195,91.4674357 66.2906195,93.0519835 L66.2906195,93.0519835 Z M77.3273451,101.378288 L77.3273451,99.3604617 C76.5720354,100.147636 75.7286726,100.743227 74.799469,101.146792 C73.869823,101.550357 72.8777876,101.75214 71.8242478,101.75214 C69.3578761,101.75214 67.309646,100.927714 65.6786726,99.2779748 C64.0481416,97.6286791 63.2322124,95.5634009 63.2322124,93.0816965 C63.2322124,91.9255487 63.4361947,90.8292704 63.8441593,89.7928617 C64.2521239,88.756453 64.8335398,87.8446617 65.5888496,87.0570443 C66.4140708,86.1900443 67.3162832,85.5496617 68.2963717,85.1358965 C69.2755752,84.7230183 70.3919469,84.5159139 71.6446018,84.5159139 C72.7689381,84.5159139 73.8025664,84.7150357 74.7468142,85.1141661 C75.6915044,85.5124096 76.5521239,86.1150965 77.3273451,86.9226704 L77.3273451,84.9341139 L80.3109735,84.9341139 L80.3109735,101.378288 L77.3273451,101.378288 Z" id="Fill-14" fill="#FFFFFF"></path>
                        <path d="M100.165265,101.378465 L97.2112832,101.378465 L97.2112832,84.9342913 L99.9865044,84.9342913 L99.9865044,86.8328217 C100.472788,86.1055174 101.03208,85.5649174 101.663938,85.2110217 C102.295354,84.8571261 103.02854,84.6753 103.863938,84.6651 L103.863938,87.7596913 C102.541814,87.8594739 101.594469,88.2506217 101.022345,88.9331348 C100.450664,89.6156478 100.165265,90.714587 100.165265,92.2295087 L100.165265,101.378465 Z" id="Fill-16" fill="#FFFFFF"></path>
                    </g>
                </g>
            </g>
        </g>
    </g>
</svg>