<svg xmlns="http://www.w3.org/2000/svg" width="24" height="25" viewBox="0 0 24 25">
  <path fill="#000000" fill-rule="evenodd" d="M23.0505559,2.23529492 C22.2029695,2.61140339 21.2925966,2.86566102 20.3354237,2.97994576 C21.3123051,2.39497627 22.060678,1.46800678 22.4140271,0.364759322 C21.5015186,0.906528814 20.4897356,1.30002712 19.4114441,1.51193898 C18.5495797,0.593267797 17.3205763,0.0197084746 15.9608746,0.0197084746 C13.3509966,0.0197084746 11.2343797,2.13547119 11.2343797,4.74687458 C11.2343797,5.11688136 11.2760542,5.47785763 11.3561695,5.8244339 C7.42734915,5.62698305 3.94419661,3.74503729 1.61273898,0.885416949 C1.2056339,1.58381695 0.972610169,2.39583051 0.972610169,3.26221017 C0.972610169,4.90204068 1.80726102,6.34887458 3.07549831,7.1964 C2.30064407,7.17223729 1.57185763,6.9595322 0.933986441,6.60538983 L0.933986441,6.66512542 C0.933986441,8.95570169 2.5632,10.8656542 4.72588475,11.3000339 C4.32860339,11.4088881 3.91167458,11.4657559 3.48034576,11.4657559 C3.17538305,11.4657559 2.87951186,11.4368949 2.59047458,11.3825288 C3.19204068,13.2599593 4.93785763,14.6265559 7.00584407,14.6651797 C5.38797966,15.9334169 3.34940339,16.6894169 1.13528136,16.6894169 C0.753925424,16.6894169 0.377023729,16.6666576 0.00701694915,16.6220542 C2.09934915,17.9636949 4.58365424,18.7469085 7.25332881,18.7469085 C15.948,18.7469085 20.7031729,11.5437356 20.7031729,5.29706441 C20.7031729,5.09198644 20.6986576,4.8884339 20.6887729,4.68561356 C21.6149492,4.01583051 22.417139,3.18349831 23.0505559,2.23529492 Z" transform="translate(.468 3.103)"/>
</svg>
