<svg xmlns="http://www.w3.org/2000/svg" xmlns:xlink="http://www.w3.org/1999/xlink" width="104" height="110" viewBox="0 0 104 110">
  <defs>
    <path id="a" d="M88.5 40.82c-2.666-4.955-5.423-10.08-5.423-18.663 0-6.432-4.63-11.802-10.734-12.96.533-2.546 1.73-5.24 4.284-6.97.36-.236.564-.648.536-1.078-.03-.43-.287-.81-.675-.997-.39-.187-.847-.15-1.2.097-3.296 2.237-4.753 5.62-5.354 8.716l-.054-.002c-7.276 0-13.196 5.92-13.196 13.193 0 7.63-2.18 12.525-4.535 17 .13.1.27.192.396.297 1.332-1.086 2.89-1.863 4.558-2.274 1.755-3.947 3.162-8.644 3.162-15.023 0-5.3 4.314-9.61 9.615-9.61 5.303 0 9.615 4.31 9.615 9.61 0 9.484 3.11 15.262 5.85 20.36 2.043 3.796 3.804 7.073 3.804 11.216C89.147 64.356 80.503 73 69.88 73c-4.564.003-8.98-1.623-12.454-4.585-.962.753-1.943 1.48-2.943 2.182 4.202 3.852 9.696 5.988 15.397 5.984 12.6 0 22.85-10.25 22.85-22.846 0-5.045-2.056-8.866-4.23-12.912v-.002z"/>
  </defs>
  <g fill="none" fill-rule="evenodd">
    <path fill="#93C13D" d="M48.266 68.877c-3.143 2.67-7.134 4.133-11.257 4.13-9.628 0-17.458-7.833-17.458-17.46 0-3.747 1.602-6.727 3.457-10.177 2.514-4.676 5.364-9.976 5.364-18.684 0-4.76 3.874-8.634 8.635-8.634 4.76 0 8.634 3.873 8.634 8.633 0 4.1.637 7.442 1.57 10.323 1.624.286 3.168.915 4.53 1.845-1.43-3.267-2.518-7.038-2.518-12.17 0-5.776-4.033-10.625-9.43-11.89.648-2.118 1.83-4.206 3.94-5.637.545-.37.688-1.112.318-1.658-.37-.545-1.113-.687-1.658-.317-2.8 1.9-4.272 4.626-5.023 7.3-.12-.003-.24-.01-.363-.01-6.736 0-12.216 5.48-12.216 12.215 0 7.805-2.51 12.473-4.937 16.987-2 3.717-3.888 7.225-3.888 11.875 0 11.6 9.44 21.04 21.04 21.04 5.513 0 10.536-2.135 14.29-5.618-.23-.09-.447-.206-.65-.344-.808-.567-1.603-1.15-2.385-1.75z"/>
    <use fill="#93C13D" xlink:href="#a"/>
    <path fill="#D98799" d="M45.185 41.616c-3.776.006-6.836 3.066-6.84 6.842 0 5.798 8.556 13.538 14.2 17.644 5.645-4.106 14.2-11.846 14.2-17.644-.004-3.776-3.064-6.836-6.84-6.842-2.542-.003-4.876 1.406-6.057 3.657-.254.485-.755.79-1.303.79-.547 0-1.048-.305-1.302-.79-1.182-2.25-3.516-3.66-6.058-3.657zm7.36 27.767c-.295 0-.59-.09-.844-.266-2.72-1.903-16.3-11.85-16.3-20.658 0-5.4 4.39-9.788 9.784-9.788 2.82-.004 5.503 1.21 7.36 3.332 1.857-2.12 4.54-3.336 7.36-3.332 5.396 0 9.787 4.39 9.787 9.786 0 8.808-13.58 18.755-16.302 20.66-.248.173-.543.265-.845.265h.002z"/>
    <path fill="#FFF" fill-rule="nonzero" d="M3.53 109.4H.24V84.41h3.22V87h.105c.537-.887 1.324-1.616 2.363-2.188 1.038-.57 2.245-.857 3.622-.857 1.237 0 2.362.222 3.377.665.995.43 1.89 1.06 2.626 1.855.735.793 1.3 1.72 1.697 2.782.402 1.093.604 2.25.595 3.413.008 1.17-.194 2.33-.595 3.43-.373 1.034-.943 1.985-1.68 2.8-.734.8-1.63 1.44-2.625 1.872-1.027.456-2.182.683-3.465.683-1.164.006-2.314-.258-3.36-.77-1.05-.513-1.878-1.237-2.485-2.17H3.53V109.4zm10.92-16.73c0-.76-.117-1.516-.35-2.24-.222-.703-.58-1.357-1.05-1.925-.473-.565-1.064-1.02-1.732-1.33-.69-.327-1.488-.49-2.398-.49-.84 0-1.604.163-2.292.49-.675.316-1.277.77-1.768 1.33-.49.56-.87 1.202-1.138 1.925-.27.728-.405 1.5-.402 2.275 0 .793.134 1.552.403 2.275.268.723.647 1.36 1.137 1.907.495.552 1.096 1 1.768 1.313.688.327 1.452.49 2.292.49.91 0 1.71-.17 2.398-.507.666-.322 1.257-.78 1.732-1.348.47-.568.828-1.222 1.05-1.925.233-.724.35-1.48.35-2.24zm30.375-1.083c-.368-1.355-1.004-2.405-1.91-3.147-.906-.742-1.99-1.114-3.25-1.114-1.293 0-2.415.38-3.364 1.144-.95.762-1.6 1.8-1.96 3.117h10.486zm-10.575 2.66c.248 1.376.868 2.49 1.857 3.342.99.85 2.165 1.276 3.528 1.276.934.01 1.854-.232 2.662-.702.8-.47 1.44-1.132 1.917-1.99h3.326c-.756 1.825-1.812 3.22-3.17 4.187-1.357.968-2.936 1.45-4.735 1.45-1.214 0-2.323-.214-3.327-.642-1.004-.43-1.914-1.072-2.73-1.93-.772-.817-1.382-1.773-1.797-2.817-.425-1.04-.645-2.154-.646-3.28 0-1.157.196-2.24.59-3.245.4-1.018.99-1.95 1.737-2.75.816-.897 1.736-1.572 2.76-2.026 1.024-.453 2.143-.68 3.356-.68 1.442 0 2.78.336 4.02 1.01 1.238.672 2.29 1.64 3.065 2.817.478.748.83 1.568 1.06 2.46.23.89.343 1.91.343 3.056v.464H34.25zm32.04-1.195c0 1.664.55 3.06 1.65 4.186 1.097 1.126 2.442 1.69 4.033 1.69 1.452 0 2.732-.567 3.84-1.698 1.11-1.13 1.664-2.454 1.664-3.97 0-1.613-.55-2.996-1.648-4.147-1.1-1.152-2.406-1.727-3.918-1.727-1.55 0-2.876.548-3.974 1.645-1.1 1.098-1.65 2.438-1.65 4.023h.002zm11.037 8.326V99.36c-.715.76-1.574 1.366-2.528 1.787-.94.406-1.954.612-2.977.605-2.466 0-4.514-.824-6.145-2.474-1.63-1.65-2.448-3.715-2.448-6.196 0-1.156.204-2.253.612-3.29.396-1.018.99-1.947 1.745-2.735.824-.867 1.726-1.507 2.706-1.92.98-.414 2.096-.62 3.35-.62 1.123 0 2.157.198 3.1.597.946.398 1.806 1 2.58 1.81v-1.99h2.985v16.444h-2.983.002zm22.838 0H97.21V84.934h2.777v1.9c.486-.728 1.045-1.27 1.677-1.623.63-.352 1.365-.534 2.2-.544v3.095c-1.322.1-2.27.49-2.842 1.174-.57.683-.857 1.782-.857 3.297v9.15-.002z"/>
  </g>
</svg>
